<svg width="615" height="217" viewBox="0 0 615 217" fill="none" xmlns="http://www.w3.org/2000/svg">
<rect width="615" height="217" fill="#F5F5F5"/>
<rect width="615" height="217" fill="#5CDB95"/>
<path d="M132.87 96.7558C134.748 96.7558 136.214 97.2838 137.27 98.3398C138.385 99.3958 138.942 100.862 138.942 102.74C138.942 103.209 138.913 103.708 138.854 104.236C138.796 104.705 138.678 105.116 138.502 105.468C137.74 105.35 136.889 105.262 135.95 105.204C135.012 105.086 133.897 105.028 132.606 105.028C129.966 105.028 127.326 105.262 124.686 105.732C122.046 106.201 119.524 106.582 117.118 106.876C114.478 113.094 112.308 118.932 110.606 124.388C108.905 129.844 107.585 135.241 106.646 140.58C104.652 140.11 102.892 139.26 101.366 138.028C99.841 136.796 98.4037 135.065 97.0544 132.836C97.465 131.897 97.9637 130.782 98.5504 129.492C99.137 128.142 99.841 126.47 100.662 124.476C101.484 122.422 102.452 119.958 103.566 117.084C104.74 114.15 106.118 110.66 107.702 106.612C105.238 105.79 103.625 104.353 102.862 102.3C103.156 102.006 103.977 101.684 105.326 101.332C106.676 100.921 108.318 100.481 110.254 100.012C111.134 97.7238 111.897 95.6998 112.542 93.9398C113.188 92.1211 113.774 90.4198 114.302 88.8358C114.83 87.1931 115.3 85.6091 115.71 84.0838C116.18 82.4998 116.59 80.8278 116.942 79.0678H116.502C114.273 79.0678 112.454 78.5398 111.046 77.4838C109.697 76.4278 109.022 75.0491 109.022 73.3478C109.022 72.8784 109.081 72.3211 109.198 71.6758C109.374 71.0304 109.58 70.4731 109.814 70.0038C110.929 70.1798 112.014 70.2971 113.07 70.3558C114.185 70.4144 115.622 70.4438 117.382 70.4438C121.078 70.4438 124.54 70.3558 127.766 70.1798C130.993 69.9451 133.897 69.7104 136.478 69.4758C139.118 69.2411 141.377 69.0358 143.254 68.8598C145.132 68.6251 146.569 68.5078 147.566 68.5078C148.916 68.5078 150.118 69.2118 151.174 70.6198C152.23 72.0278 153.052 74.0224 153.638 76.6038C151.761 76.4278 150.236 76.3104 149.062 76.2518C147.948 76.1931 146.95 76.1638 146.07 76.1638C143.078 76.1638 140.321 76.3104 137.798 76.6038C135.334 76.8384 132.988 77.1318 130.758 77.4838C130.406 78.0118 129.996 78.6864 129.526 79.5078C129.116 80.3291 128.558 81.5024 127.854 83.0278C127.15 84.4944 126.241 86.4304 125.126 88.8358C124.07 91.2411 122.721 94.2918 121.078 97.9878C123.366 97.6358 125.537 97.3424 127.59 97.1078C129.702 96.8731 131.462 96.7558 132.87 96.7558ZM143.43 127.556C143.43 127.028 143.459 126.382 143.518 125.62C143.635 124.798 143.811 123.742 144.046 122.452C144.28 121.102 144.574 119.489 144.926 117.612C145.336 115.734 145.835 113.476 146.422 110.836C146.539 110.249 146.803 109.31 147.214 108.02C147.624 106.729 148.152 105.38 148.798 103.972C149.502 102.505 150.323 101.097 151.262 99.7478C152.259 98.3984 153.432 97.4011 154.782 96.7558C155.779 96.9904 157.099 97.6064 158.742 98.6038C160.384 99.5424 161.792 100.862 162.966 102.564C161.616 104.089 160.472 105.614 159.534 107.14C158.654 108.665 157.832 110.249 157.07 111.892C156.366 113.534 155.691 115.236 155.046 116.996C154.459 118.756 153.784 120.604 153.022 122.54C152.376 124.182 151.79 125.884 151.262 127.644C150.734 129.345 150.44 130.841 150.382 132.132C150.382 133.188 150.352 133.921 150.294 134.332C150.294 134.801 150.147 135.036 149.854 135.036C149.619 135.036 149.15 134.889 148.446 134.596C147.742 134.302 147.008 133.862 146.246 133.276C145.542 132.63 144.896 131.838 144.31 130.9C143.723 129.961 143.43 128.846 143.43 127.556ZM160.238 89.3638C160.238 89.0118 160.326 88.4838 160.502 87.7798C160.208 87.4864 159.944 87.0464 159.71 86.4598C159.534 85.8731 159.446 85.3451 159.446 84.8758C159.446 84.3478 159.504 83.6438 159.622 82.7638C159.798 81.8251 160.003 80.8278 160.238 79.7718C160.472 78.7158 160.766 77.6304 161.118 76.5158C161.47 75.3424 161.822 74.2864 162.174 73.3478C162.878 73.3478 163.728 73.5531 164.726 73.9638C165.782 74.3158 166.838 74.8144 167.894 75.4598C168.95 76.0464 169.918 76.7211 170.798 77.4838C171.678 78.1878 172.352 78.8624 172.822 79.5078C172.176 80.1531 171.326 81.0624 170.27 82.2358C169.214 83.3504 168.187 84.5531 167.19 85.8438C166.192 87.0758 165.283 88.2491 164.462 89.3638C163.64 90.4784 163.112 91.2704 162.878 91.7398C162.174 91.6224 161.558 91.3291 161.03 90.8598C160.502 90.3318 160.238 89.8331 160.238 89.3638ZM164.051 127.82C164.051 125.238 164.667 121.63 165.899 116.996C167.131 112.302 168.861 106.846 171.091 100.628C174.728 90.7131 178.131 82.4704 181.299 75.8998C184.525 69.2704 187.664 64.1078 190.715 60.4118C191.419 60.5291 192.269 60.8224 193.267 61.2918C194.323 61.7611 195.349 62.2891 196.347 62.8758C197.344 63.4038 198.224 63.9611 198.987 64.5478C199.808 65.1344 200.336 65.6038 200.571 65.9558C195.995 71.3531 191.976 77.1611 188.515 83.3798C185.053 89.5984 181.885 96.7264 179.011 104.764C176.547 111.686 174.669 117.934 173.379 123.508C172.088 129.022 171.443 133.628 171.443 137.324C171.443 138.321 171.443 138.937 171.443 139.172C171.443 139.406 171.472 139.641 171.531 139.876C170.709 139.758 170.005 139.553 169.419 139.26C168.832 138.966 168.451 138.614 168.275 138.204C168.157 137.91 167.835 137.47 167.307 136.884C166.779 136.356 166.309 135.945 165.899 135.652C165.371 135.3 164.931 134.39 164.579 132.924C164.227 131.398 164.051 129.697 164.051 127.82ZM216.096 97.0198C215.861 100.657 215.216 103.796 214.16 106.436C213.104 109.017 211.578 111.305 209.584 113.3C207.648 115.236 205.272 116.996 202.456 118.58C199.64 120.164 196.354 121.689 192.6 123.156C192.6 123.508 192.57 123.889 192.512 124.3C192.512 124.652 192.512 125.033 192.512 125.444C192.512 126.206 192.57 126.998 192.688 127.82C192.805 128.641 193.01 129.404 193.304 130.108C193.597 130.812 194.008 131.398 194.536 131.868C195.064 132.278 195.738 132.484 196.56 132.484C198.144 132.484 199.698 132.132 201.224 131.428C202.749 130.724 204.186 129.873 205.536 128.876C206.944 127.82 208.234 126.705 209.408 125.532C210.64 124.3 211.725 123.185 212.664 122.188C213.25 122.716 213.749 123.214 214.16 123.684C211.52 127.204 208.616 130.137 205.448 132.484C202.338 134.772 199.376 136.238 196.56 136.884C192.512 136.414 189.344 134.948 187.056 132.484C184.826 129.961 183.712 126.94 183.712 123.42C183.712 121.014 184.034 118.58 184.68 116.116C185.384 113.593 186.322 111.188 187.496 108.9C188.728 106.553 190.136 104.353 191.72 102.3C193.362 100.246 195.093 98.4571 196.912 96.9318C198.789 95.4064 200.696 94.2038 202.632 93.3238C204.626 92.4438 206.592 92.0038 208.528 92.0038C211.226 92.3558 213.749 94.0278 216.096 97.0198ZM210.024 99.9238C208.44 100.158 206.797 100.804 205.096 101.86C203.394 102.916 201.781 104.324 200.256 106.084C198.789 107.844 197.44 109.897 196.208 112.244C194.976 114.59 194.008 117.113 193.304 119.812C197.997 117.465 201.898 114.59 205.008 111.188C208.117 107.726 209.789 103.972 210.024 99.9238ZM256.866 139.964C256.748 140.022 256.631 140.052 256.514 140.052C256.396 140.052 256.162 140.052 255.81 140.052C254.988 140.052 254.02 139.905 252.906 139.612C251.85 139.377 250.794 139.054 249.738 138.644C248.74 138.292 247.86 137.881 247.098 137.412C246.394 136.942 245.954 136.532 245.778 136.18C245.719 135.358 245.69 134.508 245.69 133.628C245.69 132.748 245.69 131.897 245.69 131.076C245.69 124.505 246.159 117.641 247.098 110.484C248.095 103.326 249.708 95.5824 251.938 87.2518C252.172 86.4304 252.407 85.4038 252.642 84.1718C252.935 82.8811 253.228 81.5024 253.522 80.0358C252.114 81.1504 250.442 82.9398 248.506 85.4038C246.57 87.8091 244.516 90.6838 242.346 94.0278C240.234 97.3131 238.092 100.95 235.922 104.94C233.81 108.87 231.874 112.889 230.114 116.996C228.354 121.044 226.828 125.062 225.538 129.052C224.306 133.041 223.543 136.737 223.25 140.14C220.434 139.318 218.468 138.497 217.354 137.676C216.298 136.854 215.77 135.857 215.77 134.684C215.77 133.628 216.092 132.132 216.738 130.196C217.383 128.26 218.292 125.972 219.466 123.332C220.639 120.692 222.076 117.758 223.778 114.532C225.479 111.246 227.356 107.726 229.41 103.972C231.756 99.6891 234.044 95.6704 236.274 91.9158C238.562 88.1611 240.791 84.7584 242.962 81.7078C245.132 78.6571 247.244 76.0171 249.298 73.7878C251.41 71.5584 253.492 69.8571 255.546 68.6838C256.367 68.6838 257.452 68.8891 258.802 69.2998C260.21 69.7104 261.559 70.2091 262.85 70.7958C264.199 71.3824 265.372 71.9984 266.37 72.6438C267.426 73.2304 268.012 73.7291 268.13 74.1398C267.308 75.7824 266.34 78.2464 265.226 81.5318C264.111 84.8171 262.967 88.5424 261.794 92.7078C260.679 96.8731 259.594 101.302 258.538 105.996C257.54 110.63 256.748 115.089 256.162 119.372C257.511 116.145 259.066 112.801 260.826 109.34C262.644 105.82 264.551 102.358 266.546 98.9558C268.54 95.4944 270.564 92.1504 272.618 88.9238C274.73 85.6971 276.783 82.7638 278.778 80.1238C280.772 77.4251 282.62 75.0784 284.322 73.0838C286.082 71.0891 287.636 69.6224 288.986 68.6838C289.807 68.6838 290.892 68.8891 292.242 69.2998C293.65 69.7104 294.999 70.2091 296.29 70.7958C297.639 71.3824 298.812 71.9984 299.81 72.6438C300.866 73.2304 301.452 73.7291 301.57 74.1398C299.692 77.4838 298.05 81.5611 296.642 86.3718C295.234 91.1824 294.031 96.2278 293.034 101.508C292.095 106.788 291.362 112.038 290.834 117.26C290.364 122.422 290.13 127.057 290.13 131.164C290.13 132.513 290.13 133.921 290.13 135.388C290.13 136.854 290.188 138.38 290.306 139.964C289.484 139.964 288.487 139.846 287.314 139.612C286.199 139.436 285.084 139.172 283.97 138.82C282.914 138.468 281.946 138.057 281.066 137.588C280.186 137.177 279.57 136.708 279.218 136.18C279.159 135.358 279.13 134.508 279.13 133.628C279.13 132.748 279.13 131.897 279.13 131.076C279.13 124.505 279.599 117.641 280.538 110.484C281.535 103.326 283.148 95.5824 285.378 87.2518C285.612 86.4304 285.876 85.3158 286.17 83.9078C286.463 82.4998 286.756 81.0331 287.05 79.5078C285.407 80.3291 283.53 81.9131 281.418 84.2598C279.364 86.5478 277.252 89.3638 275.082 92.7078C272.97 95.9931 270.858 99.6598 268.746 103.708C266.692 107.756 264.815 111.892 263.114 116.116C261.471 120.281 260.063 124.446 258.89 128.612C257.775 132.718 257.1 136.502 256.866 139.964ZM311.077 136.532C307.733 136.18 305.064 134.713 303.069 132.132C301.075 129.55 300.077 126.265 300.077 122.276C300.077 119.929 300.429 117.494 301.133 114.972C301.837 112.449 302.835 110.014 304.125 107.668C305.416 105.262 306.941 103.004 308.701 100.892C310.461 98.7798 312.368 96.9611 314.421 95.4358C317.648 93.0304 320.669 91.8278 323.485 91.8278C325.363 92.8251 327.211 94.9078 329.029 98.0758C329.323 98.0758 329.587 98.0758 329.821 98.0758C330.056 98.0171 330.32 97.9878 330.613 97.9878C333.723 97.9878 335.277 100.745 335.277 106.26C335.277 109.956 334.661 113.476 333.429 116.82C332.256 120.105 330.584 123.097 328.413 125.796C326.301 128.494 323.749 130.782 320.757 132.66C317.824 134.478 314.597 135.769 311.077 136.532ZM315.565 108.812C314.568 110.161 313.629 111.628 312.749 113.212C311.869 114.796 311.107 116.409 310.461 118.052C309.816 119.636 309.317 121.19 308.965 122.716C308.613 124.182 308.437 125.502 308.437 126.676C308.437 128.084 308.672 129.433 309.141 130.724C309.611 132.014 310.139 132.748 310.725 132.924C313.365 132.337 315.771 131.252 317.941 129.668C320.171 128.025 322.077 126.001 323.661 123.596C325.304 121.19 326.565 118.462 327.445 115.412C328.384 112.361 328.853 109.105 328.853 105.644C328.853 104.118 328.765 102.916 328.589 102.036C328.413 101.156 328.12 100.393 327.709 99.7478C325.128 100.51 322.811 101.742 320.757 103.444C318.763 105.145 317.032 106.934 315.565 108.812ZM337.425 131.692C337.718 129.99 338.217 127.761 338.921 125.004C339.684 122.188 340.564 119.225 341.561 116.116C342.558 112.948 343.614 109.78 344.729 106.612C345.844 103.444 346.929 100.598 347.985 98.0758C348.748 96.2571 349.422 94.8491 350.009 93.8518C350.596 92.7958 351.241 91.9158 351.945 91.2118C352.766 91.3291 353.617 91.5344 354.497 91.8278C355.377 92.1211 356.228 92.4731 357.049 92.8838C357.87 93.2944 358.604 93.7344 359.249 94.2038C359.894 94.6144 360.393 95.0251 360.745 95.4358C359.161 97.3131 357.753 99.4544 356.521 101.86C355.348 104.265 354.145 107.345 352.913 111.1C356.081 108.284 358.868 105.585 361.273 103.004C363.737 100.422 366.025 97.5478 368.137 94.3798C368.489 94.0864 369.105 93.9398 369.985 93.9398C370.806 93.9398 371.598 94.0864 372.361 94.3798C373.124 94.6144 373.652 94.9664 373.945 95.4358C372.889 98.2518 372.361 101.038 372.361 103.796C372.361 106.377 372.742 108.313 373.505 109.604C373.446 109.956 373.036 110.63 372.273 111.628C371.569 112.625 370.777 113.564 369.897 114.444C368.313 113.622 366.905 112.508 365.673 111.1C364.441 109.633 363.532 108.049 362.945 106.348C360.188 108.284 357.841 110.19 355.905 112.068C353.969 113.886 352.297 115.94 350.889 118.228C349.54 120.457 348.366 123.038 347.369 125.972C346.43 128.905 345.521 132.396 344.641 136.444C344.113 136.385 343.468 136.18 342.705 135.828C342.001 135.534 341.268 135.153 340.505 134.684C339.801 134.214 339.156 133.716 338.569 133.188C337.982 132.66 337.601 132.161 337.425 131.692ZM368.605 162.58C367.784 162.345 367.315 161.465 367.197 159.94C366.963 159.177 366.787 158.268 366.669 157.212C366.611 156.156 366.581 154.953 366.581 153.604C366.581 152.372 366.787 150.67 367.197 148.5C367.608 146.388 368.165 143.982 368.869 141.284C369.632 138.585 370.541 135.681 371.597 132.572C372.653 129.404 373.827 126.206 375.117 122.98C376.701 118.932 378.08 115.441 379.253 112.508C380.427 109.516 381.395 106.934 382.157 104.764C382.979 102.593 383.624 100.804 384.093 99.3958C384.621 97.9878 385.032 96.7851 385.325 95.7878C385.56 95.0838 385.912 94.2331 386.381 93.2358C386.851 92.2384 387.379 91.2411 387.965 90.2438C388.611 89.1878 389.256 88.2198 389.901 87.3398C390.547 86.4011 391.133 85.6971 391.661 85.2278C393.715 85.5211 395.651 86.0491 397.469 86.8118C399.288 87.5744 400.403 88.3078 400.813 89.0118C399.992 89.7744 399.053 90.9771 397.997 92.6198C396.941 94.2038 395.915 95.9638 394.917 97.8998C393.92 99.7771 393.011 101.713 392.189 103.708C391.368 105.702 390.752 107.462 390.341 108.988C390.928 107.99 391.691 106.905 392.629 105.732C393.568 104.558 395.005 102.945 396.941 100.892C399.112 98.6624 401.136 96.9611 403.013 95.7878C404.949 94.5558 406.621 93.9398 408.029 93.9398C410.259 93.9398 412.077 94.5558 413.485 95.7878C414.952 97.0198 415.685 98.6038 415.685 100.54C415.685 104.764 414.981 108.958 413.573 113.124C412.165 117.23 410.141 120.956 407.501 124.3C406.504 125.59 405.331 126.822 403.981 127.996C402.632 129.169 401.224 130.225 399.757 131.164C398.291 132.044 396.853 132.748 395.445 133.276C394.037 133.804 392.776 134.068 391.661 134.068C390.605 134.068 389.667 133.862 388.845 133.452C388.083 132.982 387.555 132.425 387.261 131.78C389.549 130.43 391.779 128.553 393.949 126.148C396.12 123.742 398.115 120.985 399.933 117.876C401.811 114.708 403.424 111.305 404.773 107.668C406.181 104.03 407.237 100.334 407.941 96.5798C405.712 97.7531 403.688 99.0438 401.869 100.452C400.109 101.801 398.349 103.59 396.589 105.82C394.477 108.401 392.805 110.484 391.573 112.068C390.341 113.652 389.315 115.001 388.493 116.116C387.731 117.23 387.085 118.286 386.557 119.284C386.088 120.222 385.56 121.396 384.973 122.804C384.152 124.681 383.184 127.174 382.069 130.284C381.013 133.334 379.899 136.766 378.725 140.58C377.611 144.393 376.467 148.441 375.293 152.724C374.179 157.065 373.093 161.377 372.037 165.66C371.392 165.542 370.835 165.073 370.365 164.252C369.896 163.724 369.544 163.342 369.309 163.108C369.133 162.873 368.899 162.697 368.605 162.58ZM418.769 131.956C418.769 129.902 418.975 127.497 419.385 124.74C419.796 121.924 420.383 118.932 421.145 115.764C421.967 112.596 422.905 109.281 423.961 105.82C425.076 102.358 426.308 98.8971 427.657 95.4358C428.831 92.3264 430.18 89.1878 431.705 86.0198C433.289 82.8518 434.991 79.7424 436.809 76.6918C438.628 73.6411 440.505 70.7371 442.441 67.9798C444.436 65.2224 446.431 62.6998 448.425 60.4118C449.364 60.4118 450.361 60.5291 451.417 60.7638C452.532 60.9984 453.588 61.3211 454.585 61.7318C455.641 62.0838 456.58 62.5238 457.401 63.0518C458.281 63.5798 458.985 64.1078 459.513 64.6358C455.113 69.1531 451.153 73.7291 447.633 78.3638C444.113 82.9398 441.327 87.2518 439.273 91.2998C438.159 93.5291 437.132 95.6118 436.193 97.5478C435.313 99.4838 434.492 101.42 433.729 103.356C432.967 105.233 432.263 107.14 431.617 109.076C431.031 110.953 430.473 112.948 429.945 115.06C441.209 100.686 449.569 93.4998 455.025 93.4998C456.551 93.4998 458.193 93.9984 459.953 94.9958C461.713 95.9931 463.268 97.3424 464.617 99.0438C462.799 101.038 460.921 103.444 458.985 106.26C457.049 109.076 455.26 111.921 453.617 114.796C452.033 117.612 450.713 120.252 449.657 122.716C448.66 125.121 448.161 126.91 448.161 128.084C448.161 128.67 448.249 129.081 448.425 129.316C448.601 129.492 448.983 129.58 449.569 129.58C450.449 129.58 451.153 129.462 451.681 129.228C452.209 128.993 452.532 128.876 452.649 128.876C452.943 129.345 453.119 129.668 453.177 129.844C453.236 130.02 453.265 130.166 453.265 130.284C453.265 130.518 452.913 130.87 452.209 131.34C451.505 131.75 450.655 132.19 449.657 132.66C448.719 133.07 447.78 133.452 446.841 133.804C445.903 134.156 445.199 134.332 444.729 134.332C444.143 134.332 443.556 134.156 442.969 133.804C442.383 133.51 441.855 133.1 441.385 132.572C440.975 132.044 440.623 131.457 440.329 130.812C440.095 130.166 439.977 129.492 439.977 128.788C439.977 127.908 440.212 126.617 440.681 124.916C441.209 123.156 441.913 121.132 442.793 118.844C443.673 116.497 444.729 113.945 445.961 111.188C447.193 108.43 448.513 105.614 449.921 102.74C449.921 102.505 449.804 102.388 449.569 102.388C449.393 102.388 448.924 102.622 448.161 103.092C447.457 103.561 446.783 104.03 446.137 104.5C444.025 106.084 441.884 108.049 439.713 110.396C437.601 112.684 435.519 115.206 433.465 117.964C431.471 120.721 429.564 123.654 427.745 126.764C425.985 129.814 424.46 132.894 423.169 136.004C422.993 136.414 422.729 136.796 422.377 137.148C422.025 137.5 421.732 137.676 421.497 137.676C421.321 137.676 421.057 137.47 420.705 137.06C420.412 136.649 420.119 136.121 419.825 135.476C419.591 134.889 419.356 134.273 419.121 133.628C418.887 132.982 418.769 132.425 418.769 131.956ZM495.822 97.0198C495.588 100.657 494.942 103.796 493.886 106.436C492.83 109.017 491.305 111.305 489.31 113.3C487.374 115.236 484.998 116.996 482.182 118.58C479.366 120.164 476.081 121.689 472.326 123.156C472.326 123.508 472.297 123.889 472.238 124.3C472.238 124.652 472.238 125.033 472.238 125.444C472.238 126.206 472.297 126.998 472.414 127.82C472.532 128.641 472.737 129.404 473.03 130.108C473.324 130.812 473.734 131.398 474.262 131.868C474.79 132.278 475.465 132.484 476.286 132.484C477.87 132.484 479.425 132.132 480.95 131.428C482.476 130.724 483.913 129.873 485.262 128.876C486.67 127.82 487.961 126.705 489.134 125.532C490.366 124.3 491.452 123.185 492.39 122.188C492.977 122.716 493.476 123.214 493.886 123.684C491.246 127.204 488.342 130.137 485.174 132.484C482.065 134.772 479.102 136.238 476.286 136.884C472.238 136.414 469.07 134.948 466.782 132.484C464.553 129.961 463.438 126.94 463.438 123.42C463.438 121.014 463.761 118.58 464.406 116.116C465.11 113.593 466.049 111.188 467.222 108.9C468.454 106.553 469.862 104.353 471.446 102.3C473.089 100.246 474.82 98.4571 476.638 96.9318C478.516 95.4064 480.422 94.2038 482.358 93.3238C484.353 92.4438 486.318 92.0038 488.254 92.0038C490.953 92.3558 493.476 94.0278 495.822 97.0198ZM489.75 99.9238C488.166 100.158 486.524 100.804 484.822 101.86C483.121 102.916 481.508 104.324 479.982 106.084C478.516 107.844 477.166 109.897 475.934 112.244C474.702 114.59 473.734 117.113 473.03 119.812C477.724 117.465 481.625 114.59 484.734 111.188C487.844 107.726 489.516 103.972 489.75 99.9238ZM497.784 131.692C498.078 129.99 498.576 127.761 499.28 125.004C500.043 122.188 500.923 119.225 501.92 116.116C502.918 112.948 503.974 109.78 505.088 106.612C506.203 103.444 507.288 100.598 508.344 98.0758C509.107 96.2571 509.782 94.8491 510.368 93.8518C510.955 92.7958 511.6 91.9158 512.304 91.2118C513.126 91.3291 513.976 91.5344 514.856 91.8278C515.736 92.1211 516.587 92.4731 517.408 92.8838C518.23 93.2944 518.963 93.7344 519.608 94.2038C520.254 94.6144 520.752 95.0251 521.104 95.4358C519.52 97.3131 518.112 99.4544 516.88 101.86C515.707 104.265 514.504 107.345 513.272 111.1C516.44 108.284 519.227 105.585 521.632 103.004C524.096 100.422 526.384 97.5478 528.496 94.3798C528.848 94.0864 529.464 93.9398 530.344 93.9398C531.166 93.9398 531.958 94.0864 532.72 94.3798C533.483 94.6144 534.011 94.9664 534.304 95.4358C533.248 98.2518 532.72 101.038 532.72 103.796C532.72 106.377 533.102 108.313 533.864 109.604C533.806 109.956 533.395 110.63 532.632 111.628C531.928 112.625 531.136 113.564 530.256 114.444C528.672 113.622 527.264 112.508 526.032 111.1C524.8 109.633 523.891 108.049 523.304 106.348C520.547 108.284 518.2 110.19 516.264 112.068C514.328 113.886 512.656 115.94 511.248 118.228C509.899 120.457 508.726 123.038 507.728 125.972C506.79 128.905 505.88 132.396 505 136.444C504.472 136.385 503.827 136.18 503.064 135.828C502.36 135.534 501.627 135.153 500.864 134.684C500.16 134.214 499.515 133.716 498.928 133.188C498.342 132.66 497.96 132.161 497.784 131.692Z" fill="#E52E37"/>
<path d="M426.928 157.112C427.075 157.112 427.243 157.141 427.434 157.2C427.639 157.244 427.823 157.31 427.984 157.398C428.145 157.471 428.277 157.552 428.38 157.64C428.497 157.728 428.556 157.809 428.556 157.882C428.263 158.498 427.991 159.121 427.742 159.752C427.493 160.368 427.28 160.962 427.104 161.534C426.928 162.106 426.789 162.641 426.686 163.14C426.598 163.639 426.554 164.071 426.554 164.438C426.554 164.849 426.598 165.193 426.686 165.472C426.774 165.736 426.921 165.927 427.126 166.044C426.95 166.161 426.723 166.257 426.444 166.33C426.165 166.403 425.916 166.44 425.696 166.44C424.904 166.44 424.508 165.897 424.508 164.812C424.508 163.976 424.787 162.832 425.344 161.38C425.051 162.055 424.713 162.693 424.332 163.294C423.951 163.881 423.562 164.401 423.166 164.856C422.77 165.311 422.367 165.685 421.956 165.978C421.56 166.257 421.193 166.425 420.856 166.484C420.313 166.455 419.873 166.198 419.536 165.714C419.199 165.215 419.03 164.585 419.03 163.822C419.03 163.001 419.206 162.135 419.558 161.226C419.91 160.317 420.357 159.473 420.9 158.696C421.457 157.919 422.059 157.273 422.704 156.76C423.349 156.232 423.973 155.953 424.574 155.924C424.721 155.968 424.882 156.056 425.058 156.188C425.249 156.32 425.425 156.474 425.586 156.65C425.762 156.826 425.909 157.009 426.026 157.2C426.143 157.376 426.209 157.53 426.224 157.662C425.637 157.75 425.029 158.036 424.398 158.52C423.782 159.004 423.217 159.591 422.704 160.28C422.205 160.955 421.795 161.681 421.472 162.458C421.149 163.235 420.988 163.961 420.988 164.636C420.988 164.915 421.091 165.091 421.296 165.164C421.721 165.076 422.213 164.717 422.77 164.086C423.327 163.441 424.002 162.451 424.794 161.116C424.941 160.852 425.102 160.559 425.278 160.236C425.469 159.913 425.659 159.576 425.85 159.224C426.041 158.872 426.224 158.52 426.4 158.168C426.591 157.801 426.767 157.449 426.928 157.112ZM444.418 156.342C444.492 156.342 444.646 156.349 444.88 156.364C445.13 156.364 445.408 156.371 445.716 156.386C446.024 156.386 446.332 156.401 446.64 156.43C446.963 156.459 447.234 156.496 447.454 156.54C447.601 156.701 447.711 156.855 447.784 157.002C447.447 157.442 447.124 157.941 446.816 158.498C446.508 159.055 446.222 159.635 445.958 160.236C445.694 160.823 445.452 161.409 445.232 161.996C445.027 162.568 444.844 163.103 444.682 163.602C444.536 164.086 444.411 164.511 444.308 164.878C444.22 165.245 444.169 165.509 444.154 165.67C444.125 165.934 444.11 166.117 444.11 166.22C444.125 166.337 444.096 166.396 444.022 166.396C443.964 166.396 443.846 166.359 443.67 166.286C443.494 166.213 443.311 166.103 443.12 165.956C442.944 165.795 442.783 165.597 442.636 165.362C442.49 165.127 442.416 164.849 442.416 164.526C442.416 164.115 442.475 163.602 442.592 162.986C442.71 162.355 442.864 161.71 443.054 161.05C443.245 160.39 443.465 159.759 443.714 159.158C443.964 158.542 444.22 158.043 444.484 157.662C444.015 157.633 443.546 157.611 443.076 157.596C442.607 157.567 442.138 157.552 441.668 157.552C441.507 157.552 441.346 157.552 441.184 157.552C441.023 157.552 440.862 157.559 440.7 157.574C439.967 159.877 439.307 161.886 438.72 163.602C438.148 165.318 437.613 166.785 437.114 168.002C436.63 169.234 436.161 170.239 435.706 171.016C435.266 171.808 434.819 172.424 434.364 172.864C433.924 173.319 433.455 173.634 432.956 173.81C432.458 173.986 431.908 174.074 431.306 174.074C430.265 174.074 429.378 173.722 428.644 173.018C428.644 172.915 428.674 172.805 428.732 172.688C428.791 172.571 428.857 172.49 428.93 172.446C429.136 172.695 429.407 172.886 429.744 173.018C430.082 173.165 430.434 173.238 430.8 173.238C431.182 173.238 431.534 173.15 431.856 172.974C432.164 172.813 432.472 172.534 432.78 172.138C433.074 171.742 433.367 171.221 433.66 170.576C433.968 169.931 434.298 169.131 434.65 168.178C435.164 166.77 435.692 165.171 436.234 163.382C436.792 161.593 437.356 159.701 437.928 157.706C437.371 157.735 436.909 157.772 436.542 157.816C436.176 157.86 435.934 157.889 435.816 157.904C435.758 157.845 435.706 157.765 435.662 157.662C435.633 157.559 435.618 157.464 435.618 157.376C435.853 157.303 436.183 157.222 436.608 157.134C437.048 157.031 437.576 156.929 438.192 156.826C438.544 155.77 438.933 154.817 439.358 153.966C439.784 153.101 440.238 152.367 440.722 151.766C441.221 151.165 441.749 150.703 442.306 150.38C442.878 150.057 443.494 149.896 444.154 149.896C444.389 149.896 444.646 149.947 444.924 150.05C445.218 150.138 445.496 150.241 445.76 150.358C446.039 150.461 446.288 150.563 446.508 150.666C446.728 150.754 446.897 150.798 447.014 150.798C447.19 150.695 447.432 150.607 447.74 150.534C448.063 150.446 448.334 150.402 448.554 150.402C448.73 150.402 448.958 150.497 449.236 150.688C449.104 150.893 448.972 151.172 448.84 151.524C448.708 151.876 448.606 152.221 448.532 152.558C448.166 153.643 447.777 154.347 447.366 154.67C447.293 154.67 447.227 154.626 447.168 154.538C447.124 154.435 447.102 154.267 447.102 154.032C447.102 153.871 447.066 153.724 446.992 153.592C446.919 153.46 446.831 153.328 446.728 153.196C446.64 153.064 446.56 152.932 446.486 152.8C446.413 152.668 446.376 152.529 446.376 152.382C446.376 152.294 446.384 152.191 446.398 152.074C446.413 151.942 446.442 151.729 446.486 151.436C446.31 151.421 446.134 151.414 445.958 151.414C445.797 151.399 445.636 151.392 445.474 151.392C444.902 151.392 444.389 151.531 443.934 151.81C443.494 152.089 443.098 152.47 442.746 152.954C442.394 153.423 442.079 153.966 441.8 154.582C441.522 155.183 441.272 155.814 441.052 156.474C441.566 156.445 442.094 156.415 442.636 156.386C443.194 156.357 443.788 156.342 444.418 156.342ZM447.697 164.592C447.697 163.947 447.851 163.045 448.159 161.886C448.467 160.713 448.9 159.349 449.457 157.794C450.366 155.315 451.217 153.255 452.009 151.612C452.816 149.955 453.6 148.664 454.363 147.74C454.539 147.769 454.752 147.843 455.001 147.96C455.265 148.077 455.522 148.209 455.771 148.356C456.02 148.488 456.24 148.627 456.431 148.774C456.636 148.921 456.768 149.038 456.827 149.126C455.683 150.475 454.678 151.927 453.813 153.482C452.948 155.037 452.156 156.819 451.437 158.828C450.821 160.559 450.352 162.121 450.029 163.514C449.706 164.893 449.545 166.044 449.545 166.968C449.545 167.217 449.545 167.371 449.545 167.43C449.545 167.489 449.552 167.547 449.567 167.606C449.362 167.577 449.186 167.525 449.039 167.452C448.892 167.379 448.797 167.291 448.753 167.188C448.724 167.115 448.643 167.005 448.511 166.858C448.379 166.726 448.262 166.623 448.159 166.55C448.027 166.462 447.917 166.235 447.829 165.868C447.741 165.487 447.697 165.061 447.697 164.592ZM460.708 156.892C460.65 157.801 460.488 158.586 460.224 159.246C459.96 159.891 459.579 160.463 459.08 160.962C458.596 161.446 458.002 161.886 457.298 162.282C456.594 162.678 455.773 163.059 454.834 163.426C454.834 163.514 454.827 163.609 454.812 163.712C454.812 163.8 454.812 163.895 454.812 163.998C454.812 164.189 454.827 164.387 454.856 164.592C454.886 164.797 454.937 164.988 455.01 165.164C455.084 165.34 455.186 165.487 455.318 165.604C455.45 165.707 455.619 165.758 455.824 165.758C456.22 165.758 456.609 165.67 456.99 165.494C457.372 165.318 457.731 165.105 458.068 164.856C458.42 164.592 458.743 164.313 459.036 164.02C459.344 163.712 459.616 163.433 459.85 163.184C459.997 163.316 460.122 163.441 460.224 163.558C459.564 164.438 458.838 165.171 458.046 165.758C457.269 166.33 456.528 166.697 455.824 166.858C454.812 166.741 454.02 166.374 453.448 165.758C452.891 165.127 452.612 164.372 452.612 163.492C452.612 162.891 452.693 162.282 452.854 161.666C453.03 161.035 453.265 160.434 453.558 159.862C453.866 159.275 454.218 158.725 454.614 158.212C455.025 157.699 455.458 157.251 455.912 156.87C456.382 156.489 456.858 156.188 457.342 155.968C457.841 155.748 458.332 155.638 458.816 155.638C459.491 155.726 460.122 156.144 460.708 156.892ZM459.19 157.618C458.794 157.677 458.384 157.838 457.958 158.102C457.533 158.366 457.13 158.718 456.748 159.158C456.382 159.598 456.044 160.111 455.736 160.698C455.428 161.285 455.186 161.915 455.01 162.59C456.184 162.003 457.159 161.285 457.936 160.434C458.714 159.569 459.132 158.63 459.19 157.618ZM467.101 162.128C467.101 161.292 467.27 160.485 467.607 159.708C467.959 158.916 468.414 158.219 468.971 157.618C469.543 157.002 470.188 156.511 470.907 156.144C471.64 155.763 472.396 155.572 473.173 155.572C473.936 155.572 474.522 155.763 474.933 156.144C475.344 156.525 475.549 157.068 475.549 157.772C475.549 158.109 475.498 158.439 475.395 158.762C475.307 159.07 475.182 159.349 475.021 159.598C474.874 159.847 474.698 160.053 474.493 160.214C474.288 160.361 474.082 160.434 473.877 160.434C473.701 160.434 473.518 160.383 473.327 160.28C473.151 160.163 473.004 160.016 472.887 159.84C473.87 158.945 474.361 158.131 474.361 157.398C474.361 156.973 474.192 156.76 473.855 156.76C473.562 156.76 473.195 156.899 472.755 157.178C472.315 157.457 471.89 157.823 471.479 158.278C470.848 158.982 470.364 159.767 470.027 160.632C469.704 161.483 469.543 162.377 469.543 163.316C469.543 164.504 469.807 165.215 470.335 165.45C470.555 165.421 470.812 165.355 471.105 165.252C471.398 165.149 471.714 165.017 472.051 164.856C472.388 164.68 472.733 164.482 473.085 164.262C473.452 164.042 473.804 163.807 474.141 163.558C474.2 163.602 474.251 163.668 474.295 163.756C474.339 163.844 474.361 163.925 474.361 163.998C474.112 164.306 473.826 164.607 473.503 164.9C473.18 165.193 472.843 165.465 472.491 165.714C472.139 165.949 471.794 166.147 471.457 166.308C471.134 166.484 470.848 166.594 470.599 166.638C470.115 166.594 469.66 166.44 469.235 166.176C468.81 165.927 468.436 165.597 468.113 165.186C467.805 164.775 467.556 164.306 467.365 163.778C467.189 163.25 467.101 162.7 467.101 162.128ZM478.803 166.77C477.967 166.682 477.3 166.315 476.801 165.67C476.303 165.025 476.053 164.203 476.053 163.206C476.053 162.619 476.141 162.011 476.317 161.38C476.493 160.749 476.743 160.141 477.065 159.554C477.388 158.953 477.769 158.388 478.209 157.86C478.649 157.332 479.126 156.877 479.639 156.496C480.446 155.895 481.201 155.594 481.905 155.594C482.375 155.843 482.837 156.364 483.291 157.156C483.365 157.156 483.431 157.156 483.489 157.156C483.548 157.141 483.614 157.134 483.687 157.134C484.465 157.134 484.853 157.823 484.853 159.202C484.853 160.126 484.699 161.006 484.391 161.842C484.098 162.663 483.68 163.411 483.137 164.086C482.609 164.761 481.971 165.333 481.223 165.802C480.49 166.257 479.683 166.579 478.803 166.77ZM479.925 159.84C479.676 160.177 479.441 160.544 479.221 160.94C479.001 161.336 478.811 161.739 478.649 162.15C478.488 162.546 478.363 162.935 478.275 163.316C478.187 163.683 478.143 164.013 478.143 164.306C478.143 164.658 478.202 164.995 478.319 165.318C478.437 165.641 478.569 165.824 478.715 165.868C479.375 165.721 479.977 165.45 480.519 165.054C481.077 164.643 481.553 164.137 481.949 163.536C482.36 162.935 482.675 162.253 482.895 161.49C483.13 160.727 483.247 159.913 483.247 159.048C483.247 158.667 483.225 158.366 483.181 158.146C483.137 157.926 483.064 157.735 482.961 157.574C482.316 157.765 481.737 158.073 481.223 158.498C480.725 158.923 480.292 159.371 479.925 159.84ZM489.482 155.33C489.864 155.447 490.223 155.711 490.56 156.122C490.898 156.518 491.147 156.958 491.308 157.442C491.147 157.838 490.898 158.315 490.56 158.872C490.223 159.429 489.886 160.001 489.548 160.588C489.211 161.16 488.903 161.71 488.624 162.238C488.36 162.751 488.206 163.177 488.162 163.514C488.397 163.265 488.654 162.979 488.932 162.656C489.226 162.319 489.504 161.989 489.768 161.666C490.047 161.329 490.304 161.028 490.538 160.764C490.773 160.485 490.956 160.28 491.088 160.148C491.367 159.855 491.697 159.517 492.078 159.136C492.46 158.74 492.856 158.373 493.266 158.036C493.692 157.684 494.117 157.391 494.542 157.156C494.968 156.907 495.356 156.782 495.708 156.782C496.09 156.782 496.405 156.914 496.654 157.178C496.918 157.427 497.124 157.691 497.27 157.97C497.27 157.999 497.212 158.043 497.094 158.102C496.992 158.146 496.838 158.285 496.632 158.52C496.427 158.784 496.192 159.151 495.928 159.62C495.679 160.075 495.43 160.573 495.18 161.116C494.946 161.644 494.748 162.187 494.586 162.744C494.425 163.301 494.344 163.807 494.344 164.262C494.344 164.629 494.388 164.863 494.476 164.966C494.579 165.069 494.718 165.12 494.894 165.12C495.056 165.12 495.224 165.083 495.4 165.01C495.576 164.937 495.716 164.9 495.818 164.9C495.877 164.929 495.921 164.995 495.95 165.098C495.994 165.186 496.016 165.267 496.016 165.34C495.899 165.443 495.76 165.545 495.598 165.648C495.437 165.751 495.268 165.846 495.092 165.934C494.916 166.022 494.74 166.095 494.564 166.154C494.403 166.213 494.256 166.242 494.124 166.242C493.699 166.242 493.347 166.176 493.068 166.044C492.804 165.927 492.592 165.765 492.43 165.56C492.284 165.355 492.181 165.113 492.122 164.834C492.064 164.541 492.034 164.233 492.034 163.91C492.034 163.734 492.049 163.536 492.078 163.316C492.108 163.096 492.166 162.839 492.254 162.546C492.342 162.238 492.467 161.879 492.628 161.468C492.79 161.043 492.995 160.537 493.244 159.95C493.215 159.95 493.017 160.053 492.65 160.258C492.284 160.463 491.888 160.779 491.462 161.204C490.773 161.864 490.15 162.517 489.592 163.162C489.05 163.807 488.492 164.526 487.92 165.318C487.598 165.773 487.312 166.154 487.062 166.462C486.828 166.785 486.622 166.997 486.446 167.1C486.138 166.924 485.911 166.675 485.764 166.352C485.618 166.044 485.508 165.721 485.434 165.384C485.434 165.105 485.471 164.753 485.544 164.328C485.632 163.903 485.742 163.433 485.874 162.92C486.021 162.392 486.197 161.842 486.402 161.27C486.608 160.698 486.835 160.126 487.084 159.554C487.642 158.263 488.148 157.251 488.602 156.518C489.072 155.785 489.365 155.389 489.482 155.33ZM499.009 158.212C499.009 157.948 499.024 157.699 499.053 157.464C499.097 157.229 499.178 157.031 499.295 156.87C499.412 156.694 499.574 156.562 499.779 156.474C499.984 156.371 500.256 156.32 500.593 156.32C500.798 156.32 501.026 156.342 501.275 156.386C501.539 156.43 501.73 156.511 501.847 156.628C501.788 156.877 501.737 157.097 501.693 157.288C501.664 157.479 501.634 157.691 501.605 157.926C501.59 158.146 501.576 158.417 501.561 158.74C501.546 159.048 501.532 159.451 501.517 159.95C501.488 160.947 501.436 161.842 501.363 162.634C501.304 163.411 501.158 164.189 500.923 164.966C500.923 165.025 500.945 165.054 500.989 165.054C501.209 164.893 501.458 164.658 501.737 164.35C502.016 164.042 502.309 163.697 502.617 163.316C502.925 162.92 503.233 162.502 503.541 162.062C503.849 161.622 504.135 161.189 504.399 160.764C504.751 160.148 505.14 159.378 505.565 158.454C505.99 157.53 506.342 156.54 506.621 155.484C506.709 155.484 506.819 155.506 506.951 155.55C507.098 155.579 507.237 155.623 507.369 155.682C507.516 155.726 507.64 155.777 507.743 155.836C507.86 155.895 507.941 155.946 507.985 155.99C507.956 156.621 507.802 157.266 507.523 157.926C507.259 158.586 506.936 159.224 506.555 159.84C506.174 160.456 505.77 161.035 505.345 161.578C504.92 162.121 504.531 162.59 504.179 162.986C503.475 163.807 502.764 164.541 502.045 165.186C501.341 165.831 500.498 166.455 499.515 167.056C499.134 166.909 498.833 166.711 498.613 166.462C498.393 166.227 498.283 165.978 498.283 165.714C498.283 165.538 498.32 165.34 498.393 165.12C498.481 164.885 498.576 164.592 498.679 164.24C498.782 163.873 498.87 163.419 498.943 162.876C499.031 162.333 499.075 161.644 499.075 160.808C499.075 160.324 499.06 159.84 499.031 159.356C499.016 158.857 499.009 158.476 499.009 158.212ZM515.536 156.892C515.478 157.801 515.316 158.586 515.052 159.246C514.788 159.891 514.407 160.463 513.908 160.962C513.424 161.446 512.83 161.886 512.126 162.282C511.422 162.678 510.601 163.059 509.662 163.426C509.662 163.514 509.655 163.609 509.64 163.712C509.64 163.8 509.64 163.895 509.64 163.998C509.64 164.189 509.655 164.387 509.684 164.592C509.714 164.797 509.765 164.988 509.838 165.164C509.912 165.34 510.014 165.487 510.146 165.604C510.278 165.707 510.447 165.758 510.652 165.758C511.048 165.758 511.437 165.67 511.818 165.494C512.2 165.318 512.559 165.105 512.896 164.856C513.248 164.592 513.571 164.313 513.864 164.02C514.172 163.712 514.444 163.433 514.678 163.184C514.825 163.316 514.95 163.441 515.052 163.558C514.392 164.438 513.666 165.171 512.874 165.758C512.097 166.33 511.356 166.697 510.652 166.858C509.64 166.741 508.848 166.374 508.276 165.758C507.719 165.127 507.44 164.372 507.44 163.492C507.44 162.891 507.521 162.282 507.682 161.666C507.858 161.035 508.093 160.434 508.386 159.862C508.694 159.275 509.046 158.725 509.442 158.212C509.853 157.699 510.286 157.251 510.74 156.87C511.21 156.489 511.686 156.188 512.17 155.968C512.669 155.748 513.16 155.638 513.644 155.638C514.319 155.726 514.95 156.144 515.536 156.892ZM514.018 157.618C513.622 157.677 513.212 157.838 512.786 158.102C512.361 158.366 511.958 158.718 511.576 159.158C511.21 159.598 510.872 160.111 510.564 160.698C510.256 161.285 510.014 161.915 509.838 162.59C511.012 162.003 511.987 161.285 512.764 160.434C513.542 159.569 513.96 158.63 514.018 157.618ZM516.027 165.56C516.1 165.135 516.225 164.577 516.401 163.888C516.592 163.184 516.812 162.443 517.061 161.666C517.31 160.874 517.574 160.082 517.853 159.29C518.132 158.498 518.403 157.787 518.667 157.156C518.858 156.701 519.026 156.349 519.173 156.1C519.32 155.836 519.481 155.616 519.657 155.44C519.862 155.469 520.075 155.521 520.295 155.594C520.515 155.667 520.728 155.755 520.933 155.858C521.138 155.961 521.322 156.071 521.483 156.188C521.644 156.291 521.769 156.393 521.857 156.496C521.461 156.965 521.109 157.501 520.801 158.102C520.508 158.703 520.207 159.473 519.899 160.412C520.691 159.708 521.388 159.033 521.989 158.388C522.605 157.743 523.177 157.024 523.705 156.232C523.793 156.159 523.947 156.122 524.167 156.122C524.372 156.122 524.57 156.159 524.761 156.232C524.952 156.291 525.084 156.379 525.157 156.496C524.893 157.2 524.761 157.897 524.761 158.586C524.761 159.231 524.856 159.715 525.047 160.038C525.032 160.126 524.93 160.295 524.739 160.544C524.563 160.793 524.365 161.028 524.145 161.248C523.749 161.043 523.397 160.764 523.089 160.412C522.781 160.045 522.554 159.649 522.407 159.224C521.718 159.708 521.131 160.185 520.647 160.654C520.163 161.109 519.745 161.622 519.393 162.194C519.056 162.751 518.762 163.397 518.513 164.13C518.278 164.863 518.051 165.736 517.831 166.748C517.699 166.733 517.538 166.682 517.347 166.594C517.171 166.521 516.988 166.425 516.797 166.308C516.621 166.191 516.46 166.066 516.313 165.934C516.166 165.802 516.071 165.677 516.027 165.56ZM526.726 157.574C526.653 157.486 526.587 157.303 526.528 157.024C526.469 156.731 526.44 156.481 526.44 156.276C526.821 156.305 527.188 156.335 527.54 156.364C527.892 156.379 528.215 156.393 528.508 156.408C528.728 155.968 528.963 155.535 529.212 155.11C529.476 154.67 529.725 154.274 529.96 153.922C530.209 153.555 530.437 153.247 530.642 152.998C530.862 152.749 531.031 152.587 531.148 152.514C531.295 152.514 531.478 152.543 531.698 152.602C531.933 152.646 532.167 152.712 532.402 152.8C532.637 152.873 532.849 152.954 533.04 153.042C533.231 153.13 533.363 153.218 533.436 153.306C532.996 153.863 532.615 154.384 532.292 154.868C531.984 155.337 531.647 155.88 531.28 156.496C531.573 156.496 531.867 156.489 532.16 156.474C532.468 156.459 532.776 156.437 533.084 156.408C533.157 156.481 533.216 156.577 533.26 156.694C533.304 156.797 533.326 156.907 533.326 157.024C532.607 157.288 531.735 157.435 530.708 157.464C530.341 158.168 530.011 158.872 529.718 159.576C529.439 160.265 529.197 160.933 528.992 161.578C528.801 162.223 528.647 162.832 528.53 163.404C528.427 163.976 528.376 164.489 528.376 164.944C528.376 165.589 528.618 165.949 529.102 166.022C529.542 165.963 529.96 165.853 530.356 165.692C530.752 165.531 531.104 165.325 531.412 165.076C531.5 165.208 531.551 165.318 531.566 165.406C531.478 165.538 531.324 165.692 531.104 165.868C530.899 166.044 530.671 166.213 530.422 166.374C530.173 166.55 529.931 166.697 529.696 166.814C529.461 166.931 529.285 166.997 529.168 167.012C528.801 166.997 528.435 166.917 528.068 166.77C527.701 166.623 527.364 166.44 527.056 166.22C526.763 166 526.521 165.758 526.33 165.494C526.139 165.215 526.044 164.944 526.044 164.68C526.044 164.328 526.088 163.888 526.176 163.36C526.279 162.817 526.418 162.231 526.594 161.6C526.77 160.969 526.975 160.309 527.21 159.62C527.445 158.931 527.701 158.249 527.98 157.574H526.726ZM541.038 156.892C540.98 157.801 540.818 158.586 540.554 159.246C540.29 159.891 539.909 160.463 539.41 160.962C538.926 161.446 538.332 161.886 537.628 162.282C536.924 162.678 536.103 163.059 535.164 163.426C535.164 163.514 535.157 163.609 535.142 163.712C535.142 163.8 535.142 163.895 535.142 163.998C535.142 164.189 535.157 164.387 535.186 164.592C535.216 164.797 535.267 164.988 535.34 165.164C535.414 165.34 535.516 165.487 535.648 165.604C535.78 165.707 535.949 165.758 536.154 165.758C536.55 165.758 536.939 165.67 537.32 165.494C537.702 165.318 538.061 165.105 538.398 164.856C538.75 164.592 539.073 164.313 539.366 164.02C539.674 163.712 539.946 163.433 540.18 163.184C540.327 163.316 540.452 163.441 540.554 163.558C539.894 164.438 539.168 165.171 538.376 165.758C537.599 166.33 536.858 166.697 536.154 166.858C535.142 166.741 534.35 166.374 533.778 165.758C533.221 165.127 532.942 164.372 532.942 163.492C532.942 162.891 533.023 162.282 533.184 161.666C533.36 161.035 533.595 160.434 533.888 159.862C534.196 159.275 534.548 158.725 534.944 158.212C535.355 157.699 535.788 157.251 536.242 156.87C536.712 156.489 537.188 156.188 537.672 155.968C538.171 155.748 538.662 155.638 539.146 155.638C539.821 155.726 540.452 156.144 541.038 156.892ZM539.52 157.618C539.124 157.677 538.714 157.838 538.288 158.102C537.863 158.366 537.46 158.718 537.078 159.158C536.712 159.598 536.374 160.111 536.066 160.698C535.758 161.285 535.516 161.915 535.34 162.59C536.514 162.003 537.489 161.285 538.266 160.434C539.044 159.569 539.462 158.63 539.52 157.618ZM541.529 165.56C541.602 165.135 541.727 164.577 541.903 163.888C542.094 163.184 542.314 162.443 542.563 161.666C542.812 160.874 543.076 160.082 543.355 159.29C543.634 158.498 543.905 157.787 544.169 157.156C544.36 156.701 544.528 156.349 544.675 156.1C544.822 155.836 544.983 155.616 545.159 155.44C545.364 155.469 545.577 155.521 545.797 155.594C546.017 155.667 546.23 155.755 546.435 155.858C546.64 155.961 546.824 156.071 546.985 156.188C547.146 156.291 547.271 156.393 547.359 156.496C546.963 156.965 546.611 157.501 546.303 158.102C546.01 158.703 545.709 159.473 545.401 160.412C546.193 159.708 546.89 159.033 547.491 158.388C548.107 157.743 548.679 157.024 549.207 156.232C549.295 156.159 549.449 156.122 549.669 156.122C549.874 156.122 550.072 156.159 550.263 156.232C550.454 156.291 550.586 156.379 550.659 156.496C550.395 157.2 550.263 157.897 550.263 158.586C550.263 159.231 550.358 159.715 550.549 160.038C550.534 160.126 550.432 160.295 550.241 160.544C550.065 160.793 549.867 161.028 549.647 161.248C549.251 161.043 548.899 160.764 548.591 160.412C548.283 160.045 548.056 159.649 547.909 159.224C547.22 159.708 546.633 160.185 546.149 160.654C545.665 161.109 545.247 161.622 544.895 162.194C544.558 162.751 544.264 163.397 544.015 164.13C543.78 164.863 543.553 165.736 543.333 166.748C543.201 166.733 543.04 166.682 542.849 166.594C542.673 166.521 542.49 166.425 542.299 166.308C542.123 166.191 541.962 166.066 541.815 165.934C541.668 165.802 541.573 165.677 541.529 165.56Z" fill="black"/>
</svg>
